HIERARCHY
ROOT HipCenter
{
    OFFSET 0.0 0.0 -0.0
    CHANNELS 6 Xposition Yposition Zposition Zrotation Xrotation Yrotation
    JOINT Spine
    {
        OFFSET 0.0 12.242720603942871 0.0
        CHANNELS 3 Zrotation Xrotation Yrotation
        JOINT ShoulderCenter
        {
            OFFSET 0.0 35.07554244995117 0.0
            CHANNELS 3 Zrotation Xrotation Yrotation
            JOINT LeftShoulder
            {
                OFFSET 18.598024368286133 0.0 0.0
                CHANNELS 3 Zrotation Xrotation Yrotation
                JOINT LeftElbow
                {
                    OFFSET 29.71725082397461 0.0 0.0
                    CHANNELS 3 Zrotation Xrotation Yrotation
                    JOINT LeftWrist
                    {
                        OFFSET 30.15835189819336 0.0 0.0
                        CHANNELS 3 Zrotation Xrotation Yrotation
                        JOINT LeftHand
                        {
                            OFFSET 4.082661151885986 0.0 0.0
                            CHANNELS 3 Zrotation Xrotation Yrotation
                            End Site
                            {
                                OFFSET 1.6330645084381104 0.0 0.0
                            }
                        }
                    }
                }
            }
            JOINT RightShoulder
            {
                OFFSET -18.598024368286133 0.0 0.0
                CHANNELS 3 Zrotation Xrotation Yrotation
                JOINT RightElbow
                {
                    OFFSET -29.71725082397461 0.0 0.0
                    CHANNELS 3 Zrotation Xrotation Yrotation
                    JOINT RightWrist
                    {
                        OFFSET -30.15835189819336 0.0 0.0
                        CHANNELS 3 Zrotation Xrotation Yrotation
                        JOINT RightHand
                        {
                            OFFSET -4.082661151885986 0.0 0.0
                            CHANNELS 3 Zrotation Xrotation Yrotation
                            End Site
                            {
                                OFFSET -1.6330645084381104 0.0 0.0
                            }
                        }
                    }
                }
            }
            End Site
            {
                OFFSET 0.0 14.030218124389648 0.0
            }
        }
    }
    JOINT LeftHip
    {
        OFFSET 15.674410820007324 0.0 0.0
        CHANNELS 3 Zrotation Xrotation Yrotation
        JOINT LeftKnee
        {
            OFFSET 0.0 -41.61096954345703 0.0
            CHANNELS 3 Zrotation Xrotation Yrotation
            JOINT LeftAnkle
            {
                OFFSET 0.0 -41.75005340576172 0.0
                CHANNELS 3 Zrotation Xrotation Yrotation
                JOINT LeftFoot
                {
                    OFFSET 0.0 -9.8743896484375 0.0
                    CHANNELS 3 Zrotation Xrotation Yrotation
                    End Site
                    {
                        OFFSET 0.0 0.0 3.949756145477295
                    }
                }
            }
        }
    }
    JOINT RightHip
    {
        OFFSET -15.674410820007324 0.0 0.0
        CHANNELS 3 Zrotation Xrotation Yrotation
        JOINT RightKnee
        {
            OFFSET 0.0 -41.61096954345703 0.0
            CHANNELS 3 Zrotation Xrotation Yrotation
            JOINT RightAnkle
            {
                OFFSET 0.0 -41.75005340576172 0.0
                CHANNELS 3 Zrotation Xrotation Yrotation
                JOINT RightFoot
                {
                    OFFSET 0.0 -9.8743896484375 0.0
                    CHANNELS 3 Zrotation Xrotation Yrotation
                    End Site
                    {
                        OFFSET 0.0 0.0 3.949756145477295
                    }
                }
            }
        }
    }
}
MOTION
Frames: 6
Frame Time: 0.03333333333333333
-56.900001525878906 0.0 -34.70000076293945 -28.237456364444657 -1.868871119483817 77.01883968850525 -2.1522795833749275 4.535789011460068 0.47791566698517185 1.4390250402606935e-06 2.090715911131712e-06 0.8219646175937562 112.72770088874327 -16.976283057711314 -144.39948839841148 -3.003854776931461e-06 1.0896343973069197e-05 45.512604303714795 179.9999909353474 -68.3968906231058 -123.48053815342179 -2.2069531490250793e-32 -1.5902773407317584e-15 -1.5902773407317584e-15 -105.98453180614925 -35.33753556429746 171.36375616364853 -1.1008818994984772e-06 -2.350470645750595e-06 -74.44930886626844 1.6303864963151037e-06 -38.34503338926216 -48.14218957118724 0.0 0.0 3.975693351829396e-16 14.209092507316601 -40.95069102343052 7.558801122929646 4.343698042041534 26.339662651042822 -37.031846007275405 85.48355137327754 -49.83549111889205 143.63221469463306 9.541664044390547e-15 3.180554681463516e-15 -1.5902773407317584e-15 0.41634221753732575 -31.22766371899585 8.503701952996517 0.27052823676064774 3.8805171598368045 4.264581483996987 -36.03854870329654 -65.23954232652481 -83.03316298041152 0.0 0.0 -3.1805546814635168e-15
-56.900001525878906 0.0 -34.599998474121094 -28.237457540336518 -2.3356315691905203 76.32007184187505 -1.884271767368007 4.4464696882452985 0.511842840866292 8.700661115502188e-07 -2.7682109542574e-07 1.6394978359008119 113.4486288208026 -17.529670049035236 -144.27637493860058 -1.5134062530604957e-07 7.874589635388776e-06 45.4393617363084 179.99999044411126 -67.84138661040079 -123.24342658736705 -2.2069531490250793e-32 1.5902773407317584e-15 1.5902773407317584e-15 -106.49585943440451 -35.24441846139671 170.30883175590563 1.5721321048205808e-07 -5.84790627074117e-06 -71.842663069655 -2.8694518815015825e-06 -36.34664455074764 -48.96252946709174 0.0 0.0 -3.9756933518293955e-16 15.152156749854852 -40.51177543395663 7.517225057866061 4.119605821609492 26.286073161579086 -36.69895171782981 85.68384512115716 -49.87896980384 143.6611398739171 7.156248033292914e-15 -9.931289170612858e-32 -1.5902773407317584e-15 1.4296084739105905 -31.09249324116282 8.309156258033711 0.11211227752804188 3.610861436805977 3.968544659562648 -35.18794093652441 -65.83034132852791 -82.1484427053241 -6.3611093629270335e-15 6.3611093629270335e-15 3.531125038440127e-31
-56.900001525878906 0.0 -34.599998474121094 -27.82409961420246 -1.8760568386431755 76.54313157570114 -2.598648905690054 4.842829396127397 0.5616322131067446 9.896488193114144e-07 -1.1051278698967599e-07 1.5636812470193475 113.81390081815961 -17.881793791400725 -143.80469862710908 -3.2589364513297703e-06 2.4294111298561123e-06 44.82322244366496 179.99999363228406 -70.72288434224097 -124.25979021999675 -6.3611093629270335e-15 3.1805546814635168e-15 3.1805546814635168e-15 -106.99679448968287 -35.14258700639134 170.21325454305094 1.878052321343204e-06 1.1761686064607321e-07 -72.18375851485155 3.4580107977570372e-06 -33.0916417300431 -49.38392153545866 0.0 0.0 -1.490885006936024e-16 14.427566385945918 -40.40608016679861 7.993583654607677 4.496770194545171 26.355007877008227 -37.207444601540004 85.64805103558574 -50.274387639670095 143.70456116756628 3.1805546814635168e-15 8.827812596100317e-32 3.1805546814635168e-15 0.757967568702917 -30.802784157775623 8.060289109779118 0.11211227752804188 3.610861436805977 3.968544659562648 -35.18794093652441 -65.83034132852791 -82.1484427053241 -6.3611093629270335e-15 6.3611093629270335e-15 3.531125038440127e-31
-57.0 0.0 -34.599998474121094 -28.23744177158658 -2.3356346869228504 76.5500923333908 -1.7918989135740118 4.845241936125299 0.5393537975944875 -1.6934288970509305e-06 -2.5635701761551376e-06 1.4391713437792242 113.94876047501549 -17.85061014450791 -143.57885021933802 2.525352089699799e-06 4.412370555762014e-06 44.69216706936627 179.99999368226028 -71.6092929109478 -123.37917710067269 -6.620859447075238e-32 3.1805546814635168e-15 2.3854160110976376e-15 -108.24512026010319 -35.89821082530816 170.3176327130572 -3.229054274049035e-06 -8.251665554119177e-07 -74.40048626372669 3.6328937370110847e-06 -34.17481864524455 -49.78808485681113 0.0 0.0 1.987846675914698e-16 14.791697511830936 -40.614205109583466 7.151495724615697 4.448882953230988 26.19420261783578 -36.82344928880225 85.39773366481052 -49.291579903263056 143.81316763346007 8.74652537402467e-15 3.1805546814635168e-15 3.180554681463516e-15 1.322973978567204 -31.23438568002506 8.442000999492109 0.1223258371258503 3.885006581608306 4.269482940199105 -36.59758246358169 -65.53822246989931 -83.66201247672622 -6.3611093629270335e-15 1.7655625192200634e-31 -3.1805546814635168e-15
-57.0 0.10000000149011612 -34.70000076293945 -28.237445777335765 -1.8688740389644067 76.84919150525131 -2.2485725908908973 4.834219845520893 0.5271327806924958 -3.184733065692981e-06 1.5066137711146902e-06 0.9803208812830497 114.1141271759724 -17.566542428230754 -143.63359882930743 2.8384276498392877e-06 -1.8553123802069493e-06 44.90272274987364 -179.99999737501602 -70.3603473588986 -124.3016739034704 -6.3611093629270335e-15 -4.4139062980501586e-32 7.951386703658792e-16 -108.6183500109866 -36.65024470207666 170.52335593085658 2.8565203114407385e-06 2.637554282652976e-06 -76.1909617154278 -1.4127086979372787e-06 -34.18515602273565 -51.56318789455778 0.0 0.0 0.0 14.164549402770291 -40.91845199548561 7.800190733041415 4.7505202646076725 26.228973300519705 -37.461664851012934 85.43946868585482 -50.24160633333152 143.82260388971176 -3.975693351829395e-15 5.517382872562698e-32 -1.5902773407317582e-15 0.7506237565738627 -31.620107161308024 7.814613710715185 0.06996989457971137 4.435275489689643 4.884027589004467 -37.49371693894997 -65.57423510579574 -84.68570770281812 6.3611093629270335e-15 1.5902773407317584e-15 3.1805546814635168e-15
-56.900001525878906 0.10000000149011612 -34.70000076293945 -27.824102563692193 -1.8760585597223678 77.29587656624999 -2.323555396552449 5.389042177568541 0.5634187852402733 -3.728541651124565e-07 -1.2618342427537507e-06 0.521237804352024 113.93499683253744 -17.465608238043114 -143.4738246632232 -1.5172802289268362e-07 2.6650732242752734e-06 44.93579401992929 179.99999890375256 -71.80553160939441 -124.68982108608864 1.1034765745125397e-32 -1.5902773407317588e-15 7.951386703658794e-16 -108.59851053071793 -37.004387731554814 171.0220680868166 -5.15511387665132e-07 -3.982591033322028e-06 -78.40135107199256 -2.4022803117497577e-06 -33.18212342334156 -54.127521989454955 -5.963540027744094e-16 6.3611093629270335e-15 3.975693351829396e-16 13.632746926394502 -40.630072109521784 7.735157615103076 5.053763873856206 26.176125641461997 -37.74537056299489 85.3092861916773 -50.058325319568894 144.00505274522192 -2.3854160110976376e-15 3.1805546814635168e-15 -3.1805546814635168e-15 0.3387254882737904 -30.946634993238895 8.114094033526602 0.14692192659374514 4.15575183431752 4.571992043583778 -37.444798726600055 -65.62598410278055 -84.61762258721866 6.3611093629270335e-15 3.1805546814635168e-15 -1.7655625192200634e-31
